# xmcd
#
# Track frame offsets:
#	150
#	14569
#	25203
#	38135
#	51459
#	67196
#	79483
#	93315
#	104895
#	117725
#	128059
#	137032
#	147659
#	159553
#	171998
#	185843
#	198748
#	213577
#	224413
#	240099
#	250636
#	264611
#	275168
#
# Disc length: 3817 seconds
#
# Revision: 1
# Processed by: cddbd v1.5.2PL0 Copyright (c) Steve Scherf et al.
# Submitted via: audiograbber 1.83.01
#
DISCID=7b0ee717
DTITLE=Dean Martin - The Nashville Sessions und andere
DYEAR=1900
DGENRE=
TTITLE0=Old Bones
TTITLE1=Everybody's Had The Blues (with Merle Haggard)
TTITLE2=Don't Give Up On Me
TTITLE3=In Love Up To My Heart
TTITLE4=Shoulder To Shoulder
TTITLE5=Since I Met You Baby
TTITLE6=My First Country Song (with Conway Twitty)
TTITLE7=Drinking Shampagne
TTITLE8=Hangin' Around
TTITLE9=Love Put A Song In My Heart
TTITLE10=My Heart Is An Open Book
TTITLE11=Shades
TTITLE12=Gentle On My Mind
TTITLE13=Red Roses For A Blue Lady
TTITLE14=Blue Moon
TTITLE15=C'est Si Bon
TTITLE16=Let The Good Times In
TTITLE17=King Of The Road
TTITLE18=My Woman My Woman My Wife
TTITLE19=Welcome To My World
TTITLE20=Rainbows Are Back In Style
TTITLE21=Lay Some Happiness On Me
TTITLE22=Send Me The Pillow You Dream On
EXTD=LP "The Nashville Sessions" und div. andere Dean Martin Songs von LP.
EXTT0=
EXTT1=
EXTT2=
EXTT3=
EXTT4=
EXTT5=
EXTT6=
EXTT7=
EXTT8=
EXTT9=
EXTT10=
EXTT11=
EXTT12=
EXTT13=
EXTT14=
EXTT15=
EXTT16=
EXTT17=
EXTT18=
EXTT19=
EXTT20=
EXTT21=
EXTT22=
PLAYORDER=
